<?xml version="1.0" encoding="UTF-8" standalone="no"?>
<!-- Created with Inkscape (http://www.inkscape.org/) -->

<svg
   width="263.4837"
   height="209.03293"
   id="svg2"
   sodipodi:version="0.32"
   inkscape:version="1.1 (a430696def, 2021-08-31)"
   version="1.0"
   sodipodi:docname="Invisible_Pink_Unicorn_black.svg"
   inkscape:output_extension="org.inkscape.output.svg.inkscape"
   sodipodi:modified="true"
   xmlns:inkscape="http://www.inkscape.org/namespaces/inkscape"
   xmlns:sodipodi="http://sodipodi.sourceforge.net/DTD/sodipodi-0.dtd"
   xmlns="http://www.w3.org/2000/svg"
   xmlns:svg="http://www.w3.org/2000/svg"
   xmlns:rdf="http://www.w3.org/1999/02/22-rdf-syntax-ns#"
   xmlns:cc="http://creativecommons.org/ns#"
   xmlns:dc="http://purl.org/dc/elements/1.1/">
  <defs
     id="defs4">
    <inkscape:perspective
       sodipodi:type="inkscape:persp3d"
       inkscape:vp_x="0 : 150.53293 : 1"
       inkscape:vp_y="0 : 1000 : 0"
       inkscape:vp_z="263 : 150.53293 : 1"
       inkscape:persp3d-origin="131.5 : 120.03293 : 1"
       id="perspective14" />
    <linearGradient
       id="linearGradient4183">
      <stop
         style="stop-color:#ffc0cb;stop-opacity:1;"
         offset="0"
         id="stop4185" />
      <stop
         id="stop4191"
         offset="0.11504425"
         style="stop-color:#ffc0cb;stop-opacity:0.49803922;" />
      <stop
         style="stop-color:#ffc0cb;stop-opacity:0.24705882;"
         offset="0.28733653"
         id="stop4193" />
      <stop
         style="stop-color:#ffc0cb;stop-opacity:0;"
         offset="1"
         id="stop4187" />
    </linearGradient>
  </defs>
  <sodipodi:namedview
     id="base"
     pagecolor="#ffffff"
     bordercolor="#666666"
     borderopacity="1.0"
     inkscape:pageopacity="0.0"
     inkscape:pageshadow="2"
     inkscape:zoom="7.9595817"
     inkscape:cx="105.78445"
     inkscape:cy="113.38536"
     inkscape:document-units="px"
     inkscape:current-layer="layer3"
     inkscape:window-width="3840"
     inkscape:window-height="2028"
     inkscape:window-x="3840"
     inkscape:window-y="27"
     showgrid="false"
     inkscape:pagecheckerboard="0"
     inkscape:window-maximized="0"
     fit-margin-top="10"
     fit-margin-left="10"
     fit-margin-right="10"
     fit-margin-bottom="10"
     lock-margins="true" />
  <metadata
     id="metadata7">
    <rdf:RDF>
      <cc:Work
         rdf:about="">
        <dc:format>image/svg+xml</dc:format>
        <dc:type
           rdf:resource="http://purl.org/dc/dcmitype/StillImage" />
      </cc:Work>
    </rdf:RDF>
  </metadata>
  <g
     inkscape:groupmode="layer"
     id="layer2"
     inkscape:label="unicorn"
     style="display:inline"
     transform="translate(-7.054882,-10.090429)">
    <g
       aria-label="U"
       id="text78606"
       style="font-size:29.7618px;line-height:1.25;font-family:'TeX Gyre Pagella';-inkscape-font-specification:'TeX Gyre Pagella';letter-spacing:0px;word-spacing:0px;stroke-width:2.79016" />
  </g>
  <g
     inkscape:groupmode="layer"
     id="layer1"
     inkscape:label="Schriften"
     style="display:inline"
     transform="translate(6.6146831,10)">
    <g
       id="g100796"
       transform="translate(7.9685469)">
      <path
         style="display:inline;fill:#000000;fill-opacity:1"
         d="m 81.669385,169.90774 c 3.97186,-1.108 -0.56301,-8.8977 -5.19795,-8.9287 -4.46899,-0.0299 -4.82043,-0.9636 -4.42177,-11.7482 0.43156,-11.67521 0.64345,-12.03581 11.32594,-19.27851 7.77056,-5.2685 13.84924,-12.2854 16.675695,-19.24961 1.16307,-2.8658 2.4881,-5.5553 2.94453,-5.9767 0.45641,-0.4214 5.54699,-0.4013 11.31239,0.0446 6.75384,0.5224 12.51639,0.4545 16.2003,-0.1907 5.67114,-0.9934 8.09612,-2.0234 20.96509,-8.904799 6.49138,-3.471201 6.86286,-3.550501 13.81791,-2.950301 3.93096,0.3392 9.56437,1.069 12.51869,1.6218 5.1939,0.971801 5.39048,1.120001 5.9455,4.480802 1.49852,9.074098 -0.23781,14.450508 -4.66679,14.450508 -1.29353,0 -2.72527,0.8054 -3.28133,1.8459 -1.28495,2.4044 -1.27762,9.6059 0.01,9.6059 1.16998,0 5.67444,-4.3321 5.67444,-5.4573 0,-0.4248 1.60812,-1.7685 3.5736,-2.986 l 3.57359,-2.2135 0.21196,-11.00691 c 0.11657,-6.053799 -0.20149,-11.780501 -0.70679,-12.726001 -0.50532,-0.9456 -2.31602,-1.999 -4.0238,-2.3411 -5.59422,-1.120501 -12.15814,-3.486001 -12.15814,-4.381502 0,-0.4827 0.41373,-0.8776 0.91942,-0.8776 1.31816,0 2.66903,-2.865301 4.29112,-9.101802 1.1605,-4.461801 1.21716,-6.596602 0.3149,-11.865703 -1.01776,-5.943602 -0.94467,-6.723802 0.97549,-10.413003 1.14163,-2.193301 2.07569,-4.751502 2.07569,-5.684802 0,-0.9332 0.6296,-2.5304 1.39913,-3.549301 1.68752,-2.2342 1.79599,-1.6717 0.43279,2.244401 -0.78468,2.2541 -0.66428,4.730801 0.51037,10.498103 0.92346,4.534201 1.28786,9.110402 0.91256,11.460703 -0.71621,4.485301 0.86767,6.868202 4.56519,6.868202 3.85459,0 6.24,-2.506101 7.35907,-7.731602 0.57382,-2.679401 2.8307,-8.370203 5.01528,-12.646204 2.18459,-4.275901 4.24526,-8.390002 4.57927,-9.142302 0.33401,-0.752301 2.0795,-1.864201 3.87887,-2.470901 2.51748,-0.8488 3.27159,-1.6334 3.27159,-3.403701 0,-2.0724 -0.34997,-2.2701 -3.52692,-1.9928 l -3.52692,0.3079 0.88998,-3.107601 c 1.17042,-4.086901 0.54639,-4.497201 -2.92761,-1.925101 l -2.87378,2.127701 -2.4263,-1.911201 c -1.33447,-1.0512 -3.69539,-3.665701 -5.24648,-5.810001 -3.67786,-5.084302 -6.01776,-5.905602 -13.21062,-4.636801 -4.42141,0.7799 -6.10744,0.7431 -7.19039,-0.1569 -0.77807,-0.646701 -1.4081,-0.801101 -1.40007,-0.343201 0.0247,1.410201 1.32951,2.848801 3.21891,3.549001 3.56366,1.320701 0.5811,1.769101 -4.17206,0.627201 -4.64804,-1.116701 -5.01183,-1.055901 -8.60255,1.436 -2.65913,1.8454 -4.57329,2.480801 -6.58334,2.185301 -3.57871,-0.525901 -2.77708,0.9114 1.50833,2.7045 1.79159,0.7496 3.01043,1.763201 2.70851,2.252401 -0.33176,0.5376 -1.44652,0.4799 -2.8177,-0.1457 -1.73832,-0.7932 -3.32972,-0.6732 -6.80644,0.5131 -2.49572,0.8516 -5.53336,1.5484 -6.75031,1.5484 -3.06931,0 -2.76484,1.573601 0.64624,3.340101 1.57239,0.8142 2.85888,1.663901 2.85888,1.888101 0,0.2243 -2.0732,0.1618 -4.60712,-0.1387 -4.23389,-0.5022 -4.97842,-0.2626 -9.19056,2.957201 -2.5209,1.927 -5.16484,3.2802 -5.87543,3.0071 -2.37384,-0.9122 -1.32759,0.3305 1.51958,1.804901 1.54635,0.8008 3.6905,1.456 4.76479,1.456 2.80402,0 2.4523,1.485601 -1.95587,8.261202 -4.19624,6.449802 -9.12394,9.670203 -18.00895,11.769304 -14.158285,3.345101 -22.768175,5.629601 -25.453675,6.753701 -2.65762,1.112601 -3.5042,1.068101 -6.4496,-0.3384 -1.93631,-0.9247 -3.83606,-2.7478 -4.42947,-4.250701 -2.2196,-5.621801 -3.7029,-7.482402 -7.67396,-9.626102 -5.72208,-3.089001 -13.45474,-2.565401 -16.62515,1.1257 -2.25714,2.627801 -2.4141,3.272901 -4.13213,16.982604 -1.4079,11.234803 -3.38443,17.396405 -6.84753,21.346304 -2.71515,3.0968 -3.30706,3.3266 -8.56632,3.3266 -7.14937,0 -11.88768,-1.925 -15.88361,-6.453099 l -3.14798,-3.567201 1.5286,3.817301 c 3.461859,7.379689 9.068829,11.673859 16.20287,13.456509 l 4.76479,1.173 -5.8217,0.0812 c -4.59412,0.0641 -6.94209,-0.4848 -11.13514,-2.60281 -4.77167,-2.4103 -5.20942,-2.4893 -4.29317,-0.7748 1.68772,3.15801 9.37971,10.96341 13.03124,13.22341 2.7409,1.6964 4.87126,2.1212 10.73255,2.1404 19.214992,-0.8611 21.286222,-14.73252 20.35723,-31.94231 0,0 -1.69534,-9.724303 0.59467,-16.715104 1.78452,-5.447702 7.74388,-8.173103 11.7362,-1.923201 1.83498,2.872601 4.1508,5.732302 5.14627,6.354902 1.75681,1.0987 1.74127,1.2645 -0.52902,5.646601 -3.28948,6.349302 -3.69057,13.699402 -1.35144,24.765402 l 1.91633,9.06601 -2.32419,3.3917 c -1.27832,1.8654 -3.82505,4.8483 -5.65939,6.6288 -3.77153,3.6607 -3.89894,4.7909 -2.71845,24.11181 0.53316,8.7264 0.85599,10.1569 2.3824,10.5566 0.9711,0.2543 1.76564,1.1178 1.76564,1.9189 0,0.8011 0.75046,1.6773 1.66768,1.9471 3.08002,0.906 8.32376,1.3869 10.00606,0.9176 z M 198.64508,50.176208 c 0,-1.7197 0.22255,-1.8405 1.47454,-0.7999 1.17776,0.9788 1.22571,1.383601 0.23824,2.010801 -1.70036,1.0802 -1.71278,1.0714 -1.71278,-1.210901 z m -70.7572,109.855332 c 1.17929,-0.4867 2.14416,-1.3613 2.14416,-1.9435 0,-1.6588 -5.39125,-6.6375 -7.18747,-6.6375 -2.00149,0 -12.37838,-6.12011 -15.92177,-9.39031 -4.48999,-4.1438 -3.43699,-9.6294 3.62752,-18.8976 2.81616,-3.6946 6.95599,-14.15761 5.98601,-15.12891 -0.18184,-0.1821 -2.89427,-0.4723 -6.02762,-0.645 l -5.697,-0.3139 -3.04106,5.72591 c -3.901725,7.3463 -3.581625,6.6131 -6.040675,13.8376 -3.76429,11.0591 -3.8288,10.7111 2.94932,15.9101 3.303905,2.5342 7.528755,5.9317 9.388575,7.55001 1.85981,1.6183 4.13837,3.2178 5.06345,3.5543 0.92509,0.3365 2.07792,1.6547 2.56185,2.9293 0.48393,1.2747 1.22796,2.5245 1.65339,2.7774 1.78234,1.0594 8.55661,1.4914 10.54132,0.6721 z m 86.9575,-42.04131 c 0,-2.1572 -2.63634,-10.74321 -4.2342,-13.79001 -0.5539,-1.0561 -3.01093,-4.928998 -5.46008,-8.606299 -2.44915,-3.677401 -4.72027,-7.751902 -5.04694,-9.054403 -0.50001,-1.9938 -2.05617,-2.879401 -9.84137,-5.600801 -5.0861,-1.778001 -9.69785,-3.401401 -10.24835,-3.607701 -0.5505,-0.2063 -1.69145,1.0751 -2.53546,2.847501 l -1.53456,3.2226 8.72969,2.643201 c 10.03726,3.039001 11.97681,4.508401 15.3397,11.621003 1.53733,3.251499 3.29213,5.485599 4.74253,6.037799 3.08776,1.1757 3.80158,3.9459 2.07995,8.07221 l -1.42239,3.4092 3.50751,2.3868 c 4.26464,2.902 5.92397,3.0193 5.92397,0.4189 z"
         id="path2222"
         sodipodi:nodetypes="cssssssssssssssscccssssssssssssssssssccccccssssssssssssssssssssssssssssssccccccsssccsssscccssssscccscccsssscccsssssscccsssscccssccccc"
         transform="translate(-13.669565,-20.090429)" />
      <text
         xml:space="preserve"
         style="font-size:10.6667px;line-height:1.25;font-family:'TeX Gyre Pagella';-inkscape-font-specification:'TeX Gyre Pagella';letter-spacing:0px;word-spacing:0px;display:inline"
         x="126.19019"
         y="144.59294"
         id="text5879"
         transform="rotate(-7.0509246,-169.88343,100.89339)"><tspan
           sodipodi:role="line"
           id="tspan5877"
           x="126.19019"
           y="144.59294"
           style="font-style:normal;font-variant:normal;font-weight:normal;font-stretch:normal;font-family:'TeX Gyre Pagella';-inkscape-font-specification:'TeX Gyre Pagella'">THEO</tspan></text>
      <text
         xml:space="preserve"
         style="font-size:10.6667px;line-height:1.25;font-family:'TeX Gyre Pagella';-inkscape-font-specification:'TeX Gyre Pagella';letter-spacing:0px;word-spacing:0px;display:inline"
         x="122.86478"
         y="148.92593"
         id="text5879-3"
         transform="rotate(13.704939,76.755756,-66.920371)"><tspan
           sodipodi:role="line"
           id="tspan5877-6"
           x="122.86478"
           y="148.92593"
           style="font-style:normal;font-variant:normal;font-weight:normal;font-stretch:normal;font-family:'TeX Gyre Pagella';-inkscape-font-specification:'TeX Gyre Pagella'">DB</tspan></text>
      <text
         xml:space="preserve"
         style="font-size:10.6667px;line-height:1.25;font-family:'TeX Gyre Pagella';-inkscape-font-specification:'TeX Gyre Pagella';letter-spacing:0px;word-spacing:0px;display:inline"
         x="182.27553"
         y="98.862869"
         id="text5879-3-7-3"
         transform="rotate(23.105254,42.307936,-43.482011)"><tspan
           sodipodi:role="line"
           id="tspan5877-6-5-5"
           x="182.27553"
           y="98.862869"
           style="font-style:normal;font-variant:normal;font-weight:normal;font-stretch:normal;font-family:'TeX Gyre Pagella';-inkscape-font-specification:'TeX Gyre Pagella'">AUD</tspan></text>
      <text
         xml:space="preserve"
         style="font-size:10.6667px;line-height:1.25;font-family:'TeX Gyre Pagella';-inkscape-font-specification:'TeX Gyre Pagella';letter-spacing:0px;word-spacing:0px;display:inline"
         x="-1.0004474"
         y="242.36044"
         id="text5879-3-7"
         transform="rotate(-54.109307,-26.503223,3.3372285)"><tspan
           sodipodi:role="line"
           id="tspan5877-6-5"
           x="-1.0004474"
           y="242.36044"
           style="font-style:normal;font-variant:normal;font-weight:normal;font-stretch:normal;font-family:'TeX Gyre Pagella';-inkscape-font-specification:'TeX Gyre Pagella'">SOSY</tspan></text>
      <g
         id="g76534"
         transform="rotate(-6.1408536,-569.55462,203.0022)"
         style="display:inline">
        <text
           xml:space="preserve"
           style="font-size:9.31834px;line-height:1.25;font-family:'TeX Gyre Pagella';-inkscape-font-specification:'TeX Gyre Pagella';letter-spacing:0px;word-spacing:0px;stroke-width:0.873591"
           x="215.13872"
           y="104.03188"
           id="text47144"><tspan
             sodipodi:role="line"
             id="tspan47142"
             x="215.13872"
             y="104.03188"
             style="stroke-width:0.873591">D</tspan></text>
        <text
           xml:space="preserve"
           style="font-size:2.22779px;line-height:1.25;font-family:'TeX Gyre Pagella';-inkscape-font-specification:'TeX Gyre Pagella';letter-spacing:0px;word-spacing:0px;stroke-width:0.208855"
           x="248.26511"
           y="101.58919"
           id="text52392"><tspan
             sodipodi:role="line"
             id="tspan52390"
             x="248.26511"
             y="101.58919"
             style="stroke-width:0.208855">K</tspan></text>
        <text
           xml:space="preserve"
           style="font-size:2.82437px;line-height:1.25;font-family:'TeX Gyre Pagella';-inkscape-font-specification:'TeX Gyre Pagella';letter-spacing:0px;word-spacing:0px;stroke-width:0.264784"
           x="245.6524"
           y="101.79471"
           id="text55572"><tspan
             sodipodi:role="line"
             id="tspan55570"
             x="245.6524"
             y="101.79471"
             style="stroke-width:0.264784">I</tspan></text>
        <text
           xml:space="preserve"
           style="font-size:3.29795px;line-height:1.25;font-family:'TeX Gyre Pagella';-inkscape-font-specification:'TeX Gyre Pagella';letter-spacing:0px;word-spacing:0px;stroke-width:0.309182"
           x="241.97018"
           y="101.95786"
           id="text57628"><tspan
             sodipodi:role="line"
             id="tspan57626"
             x="241.97018"
             y="101.95786"
             style="stroke-width:0.309182">T</tspan></text>
        <text
           xml:space="preserve"
           style="font-size:3.64887px;line-height:1.25;font-family:'TeX Gyre Pagella';-inkscape-font-specification:'TeX Gyre Pagella';letter-spacing:0px;word-spacing:0px;stroke-width:0.342081"
           x="237.78534"
           y="102.07875"
           id="text63030"><tspan
             sodipodi:role="line"
             id="tspan63028"
             x="237.78534"
             y="102.07875"
             style="stroke-width:0.342081">K</tspan></text>
        <text
           xml:space="preserve"
           style="font-size:4.92815px;line-height:1.25;font-family:'TeX Gyre Pagella';-inkscape-font-specification:'TeX Gyre Pagella';letter-spacing:0px;word-spacing:0px;stroke-width:0.462013"
           x="232.51079"
           y="102.53918"
           id="text66060"><tspan
             sodipodi:role="line"
             id="tspan66058"
             x="232.51079"
             y="102.53918"
             style="stroke-width:0.462013">A</tspan></text>
        <text
           xml:space="preserve"
           style="font-size:6.16799px;line-height:1.25;font-family:'TeX Gyre Pagella';-inkscape-font-specification:'TeX Gyre Pagella';letter-spacing:0px;word-spacing:0px;stroke-width:0.578247"
           x="226.76347"
           y="102.94659"
           id="text68804"><tspan
             sodipodi:role="line"
             id="tspan68802"
             x="226.76347"
             y="102.94659"
             style="stroke-width:0.578247">D</tspan></text>
        <text
           xml:space="preserve"
           style="font-size:7.51639px;line-height:1.25;font-family:'TeX Gyre Pagella';-inkscape-font-specification:'TeX Gyre Pagella';letter-spacing:0px;word-spacing:0px;stroke-width:0.70466"
           x="223.08786"
           y="103.41111"
           id="text70924"><tspan
             sodipodi:role="line"
             id="tspan70922"
             x="223.08786"
             y="103.41111"
             style="stroke-width:0.70466">I</tspan></text>
      </g>
    </g>
  </g>
  <g
     inkscape:groupmode="layer"
     id="layer3"
     inkscape:label="Die Bschlangaul-Sammlung"
     transform="translate(6.6146831,10)">
    <text
       xml:space="preserve"
       style="font-size:19.8261px;line-height:1.25;font-family:'TeX Gyre Pagella';-inkscape-font-specification:'TeX Gyre Pagella';letter-spacing:0px;word-spacing:0px;display:inline;stroke-width:1.8587"
       x="2.9491427"
       y="183.42213"
       id="text94819"><tspan
         sodipodi:role="line"
         id="tspan94817"
         x="2.9491427"
         y="183.42213"
         style="stroke-width:1.8587">Die Bschlangaul-Sammlung</tspan></text>
  </g>
</svg>
