<?xml version="1.0" encoding="UTF-8" standalone="no"?>
<!-- Created with Inkscape (http://www.inkscape.org/) -->

<svg
   width="254.31725"
   height="177.14752"
   id="svg2"
   sodipodi:version="0.32"
   inkscape:version="1.1 (a430696def, 2021-08-31)"
   version="1.0"
   sodipodi:docname="Logo_nur-Pfade.svg"
   inkscape:output_extension="org.inkscape.output.svg.inkscape"
   sodipodi:modified="true"
   xmlns:inkscape="http://www.inkscape.org/namespaces/inkscape"
   xmlns:sodipodi="http://sodipodi.sourceforge.net/DTD/sodipodi-0.dtd"
   xmlns="http://www.w3.org/2000/svg"
   xmlns:svg="http://www.w3.org/2000/svg"
   xmlns:rdf="http://www.w3.org/1999/02/22-rdf-syntax-ns#"
   xmlns:cc="http://creativecommons.org/ns#"
   xmlns:dc="http://purl.org/dc/elements/1.1/">
  <defs
     id="defs4">
    <inkscape:perspective
       sodipodi:type="inkscape:persp3d"
       inkscape:vp_x="0 : 118.64752 : 1"
       inkscape:vp_y="0 : 1000 : 0"
       inkscape:vp_z="263 : 118.64752 : 1"
       inkscape:persp3d-origin="131.5 : 88.147524 : 1"
       id="perspective14" />
    <linearGradient
       id="linearGradient4183">
      <stop
         style="stop-color:#ffc0cb;stop-opacity:1;"
         offset="0"
         id="stop4185" />
      <stop
         id="stop4191"
         offset="0.11504425"
         style="stop-color:#ffc0cb;stop-opacity:0.49803922;" />
      <stop
         style="stop-color:#ffc0cb;stop-opacity:0.24705882;"
         offset="0.28733653"
         id="stop4193" />
      <stop
         style="stop-color:#ffc0cb;stop-opacity:0;"
         offset="1"
         id="stop4187" />
    </linearGradient>
  </defs>
  <sodipodi:namedview
     id="base"
     pagecolor="#ffffff"
     bordercolor="#666666"
     borderopacity="1.0"
     inkscape:pageopacity="0.0"
     inkscape:pageshadow="2"
     inkscape:zoom="7.9595817"
     inkscape:cx="101.19879"
     inkscape:cy="113.38536"
     inkscape:document-units="px"
     inkscape:current-layer="text5879-3-7-3"
     inkscape:window-width="3840"
     inkscape:window-height="2028"
     inkscape:window-x="3840"
     inkscape:window-y="27"
     showgrid="false"
     inkscape:pagecheckerboard="0"
     inkscape:window-maximized="0"
     fit-margin-top="10"
     fit-margin-left="10"
     fit-margin-right="10"
     fit-margin-bottom="10"
     lock-margins="true" />
  <metadata
     id="metadata7">
    <rdf:RDF>
      <cc:Work
         rdf:about="">
        <dc:format>image/svg+xml</dc:format>
        <dc:type
           rdf:resource="http://purl.org/dc/dcmitype/StillImage" />
      </cc:Work>
    </rdf:RDF>
  </metadata>
  <g
     inkscape:groupmode="layer"
     id="layer2"
     inkscape:label="unicorn"
     style="display:inline"
     transform="translate(-11.638112,-10.090429)">
    <g
       aria-label="U"
       id="text78606"
       style="font-size:29.7618px;line-height:1.25;font-family:'TeX Gyre Pagella';-inkscape-font-specification:'TeX Gyre Pagella';letter-spacing:0px;word-spacing:0px;stroke-width:2.79016" />
  </g>
  <g
     inkscape:groupmode="layer"
     id="layer1"
     inkscape:label="Schriften"
     style="display:inline"
     transform="translate(2.0314531,10)">
    <g
       id="g100796"
       transform="translate(7.9685469)">
      <path
         style="display:inline;fill:#000000;fill-opacity:1"
         d="m 81.669385,169.90774 c 3.97186,-1.108 -0.56301,-8.8977 -5.19795,-8.9287 -4.46899,-0.0299 -4.82043,-0.9636 -4.42177,-11.7482 0.43156,-11.67521 0.64345,-12.03581 11.32594,-19.27851 7.77056,-5.2685 13.84924,-12.2854 16.675695,-19.24961 1.16307,-2.8658 2.4881,-5.5553 2.94453,-5.9767 0.45641,-0.4214 5.54699,-0.4013 11.31239,0.0446 6.75384,0.5224 12.51639,0.4545 16.2003,-0.1907 5.67114,-0.9934 8.09612,-2.0234 20.96509,-8.904799 6.49138,-3.471201 6.86286,-3.550501 13.81791,-2.950301 3.93096,0.3392 9.56437,1.069 12.51869,1.6218 5.1939,0.971801 5.39048,1.120001 5.9455,4.480802 1.49852,9.074098 -0.23781,14.450508 -4.66679,14.450508 -1.29353,0 -2.72527,0.8054 -3.28133,1.8459 -1.28495,2.4044 -1.27762,9.6059 0.01,9.6059 1.16998,0 5.67444,-4.3321 5.67444,-5.4573 0,-0.4248 1.60812,-1.7685 3.5736,-2.986 l 3.57359,-2.2135 0.21196,-11.00691 c 0.11657,-6.053799 -0.20149,-11.780501 -0.70679,-12.726001 -0.50532,-0.9456 -2.31602,-1.999 -4.0238,-2.3411 -5.59422,-1.120501 -12.15814,-3.486001 -12.15814,-4.381502 0,-0.4827 0.41373,-0.8776 0.91942,-0.8776 1.31816,0 2.66903,-2.865301 4.29112,-9.101802 1.1605,-4.461801 1.21716,-6.596602 0.3149,-11.865703 -1.01776,-5.943602 -0.94467,-6.723802 0.97549,-10.413003 1.14163,-2.193301 2.07569,-4.751502 2.07569,-5.684802 0,-0.9332 0.6296,-2.5304 1.39913,-3.549301 1.68752,-2.2342 1.79599,-1.6717 0.43279,2.244401 -0.78468,2.2541 -0.66428,4.730801 0.51037,10.498103 0.92346,4.534201 1.28786,9.110402 0.91256,11.460703 -0.71621,4.485301 0.86767,6.868202 4.56519,6.868202 3.85459,0 6.24,-2.506101 7.35907,-7.731602 0.57382,-2.679401 2.8307,-8.370203 5.01528,-12.646204 2.18459,-4.275901 4.24526,-8.390002 4.57927,-9.142302 0.33401,-0.752301 2.0795,-1.864201 3.87887,-2.470901 2.51748,-0.8488 3.27159,-1.6334 3.27159,-3.403701 0,-2.0724 -0.34997,-2.2701 -3.52692,-1.9928 l -3.52692,0.3079 0.88998,-3.107601 c 1.17042,-4.086901 0.54639,-4.497201 -2.92761,-1.925101 l -2.87378,2.127701 -2.4263,-1.911201 c -1.33447,-1.0512 -3.69539,-3.665701 -5.24648,-5.810001 -3.67786,-5.084302 -6.01776,-5.905602 -13.21062,-4.636801 -4.42141,0.7799 -6.10744,0.7431 -7.19039,-0.1569 -0.77807,-0.646701 -1.4081,-0.801101 -1.40007,-0.343201 0.0247,1.410201 1.32951,2.848801 3.21891,3.549001 3.56366,1.320701 0.5811,1.769101 -4.17206,0.627201 -4.64804,-1.116701 -5.01183,-1.055901 -8.60255,1.436 -2.65913,1.8454 -4.57329,2.480801 -6.58334,2.185301 -3.57871,-0.525901 -2.77708,0.9114 1.50833,2.7045 1.79159,0.7496 3.01043,1.763201 2.70851,2.252401 -0.33176,0.5376 -1.44652,0.4799 -2.8177,-0.1457 -1.73832,-0.7932 -3.32972,-0.6732 -6.80644,0.5131 -2.49572,0.8516 -5.53336,1.5484 -6.75031,1.5484 -3.06931,0 -2.76484,1.573601 0.64624,3.340101 1.57239,0.8142 2.85888,1.663901 2.85888,1.888101 0,0.2243 -2.0732,0.1618 -4.60712,-0.1387 -4.23389,-0.5022 -4.97842,-0.2626 -9.19056,2.957201 -2.5209,1.927 -5.16484,3.2802 -5.87543,3.0071 -2.37384,-0.9122 -1.32759,0.3305 1.51958,1.804901 1.54635,0.8008 3.6905,1.456 4.76479,1.456 2.80402,0 2.4523,1.485601 -1.95587,8.261202 -4.19624,6.449802 -9.12394,9.670203 -18.00895,11.769304 -14.158285,3.345101 -22.768175,5.629601 -25.453675,6.753701 -2.65762,1.112601 -3.5042,1.068101 -6.4496,-0.3384 -1.93631,-0.9247 -3.83606,-2.7478 -4.42947,-4.250701 -2.2196,-5.621801 -3.7029,-7.482402 -7.67396,-9.626102 -5.72208,-3.089001 -13.45474,-2.565401 -16.62515,1.1257 -2.25714,2.627801 -2.4141,3.272901 -4.13213,16.982604 -1.4079,11.234803 -3.38443,17.396405 -6.84753,21.346304 -2.71515,3.0968 -3.30706,3.3266 -8.56632,3.3266 -7.14937,0 -11.88768,-1.925 -15.88361,-6.453099 l -3.14798,-3.567201 1.5286,3.817301 c 3.461859,7.379689 9.068829,11.673859 16.20287,13.456509 l 4.76479,1.173 -5.8217,0.0812 c -4.59412,0.0641 -6.94209,-0.4848 -11.13514,-2.60281 -4.77167,-2.4103 -5.20942,-2.4893 -4.29317,-0.7748 1.68772,3.15801 9.37971,10.96341 13.03124,13.22341 2.7409,1.6964 4.87126,2.1212 10.73255,2.1404 19.214992,-0.8611 21.286222,-14.73252 20.35723,-31.94231 0,0 -1.69534,-9.724303 0.59467,-16.715104 1.78452,-5.447702 7.74388,-8.173103 11.7362,-1.923201 1.83498,2.872601 4.1508,5.732302 5.14627,6.354902 1.75681,1.0987 1.74127,1.2645 -0.52902,5.646601 -3.28948,6.349302 -3.69057,13.699402 -1.35144,24.765402 l 1.91633,9.06601 -2.32419,3.3917 c -1.27832,1.8654 -3.82505,4.8483 -5.65939,6.6288 -3.77153,3.6607 -3.89894,4.7909 -2.71845,24.11181 0.53316,8.7264 0.85599,10.1569 2.3824,10.5566 0.9711,0.2543 1.76564,1.1178 1.76564,1.9189 0,0.8011 0.75046,1.6773 1.66768,1.9471 3.08002,0.906 8.32376,1.3869 10.00606,0.9176 z M 198.64508,50.176208 c 0,-1.7197 0.22255,-1.8405 1.47454,-0.7999 1.17776,0.9788 1.22571,1.383601 0.23824,2.010801 -1.70036,1.0802 -1.71278,1.0714 -1.71278,-1.210901 z m -70.7572,109.855332 c 1.17929,-0.4867 2.14416,-1.3613 2.14416,-1.9435 0,-1.6588 -5.39125,-6.6375 -7.18747,-6.6375 -2.00149,0 -12.37838,-6.12011 -15.92177,-9.39031 -4.48999,-4.1438 -3.43699,-9.6294 3.62752,-18.8976 2.81616,-3.6946 6.95599,-14.15761 5.98601,-15.12891 -0.18184,-0.1821 -2.89427,-0.4723 -6.02762,-0.645 l -5.697,-0.3139 -3.04106,5.72591 c -3.901725,7.3463 -3.581625,6.6131 -6.040675,13.8376 -3.76429,11.0591 -3.8288,10.7111 2.94932,15.9101 3.303905,2.5342 7.528755,5.9317 9.388575,7.55001 1.85981,1.6183 4.13837,3.2178 5.06345,3.5543 0.92509,0.3365 2.07792,1.6547 2.56185,2.9293 0.48393,1.2747 1.22796,2.5245 1.65339,2.7774 1.78234,1.0594 8.55661,1.4914 10.54132,0.6721 z m 86.9575,-42.04131 c 0,-2.1572 -2.63634,-10.74321 -4.2342,-13.79001 -0.5539,-1.0561 -3.01093,-4.928998 -5.46008,-8.606299 -2.44915,-3.677401 -4.72027,-7.751902 -5.04694,-9.054403 -0.50001,-1.9938 -2.05617,-2.879401 -9.84137,-5.600801 -5.0861,-1.778001 -9.69785,-3.401401 -10.24835,-3.607701 -0.5505,-0.2063 -1.69145,1.0751 -2.53546,2.847501 l -1.53456,3.2226 8.72969,2.643201 c 10.03726,3.039001 11.97681,4.508401 15.3397,11.621003 1.53733,3.251499 3.29213,5.485599 4.74253,6.037799 3.08776,1.1757 3.80158,3.9459 2.07995,8.07221 l -1.42239,3.4092 3.50751,2.3868 c 4.26464,2.902 5.92397,3.0193 5.92397,0.4189 z"
         id="path2222"
         sodipodi:nodetypes="cssssssssssssssscccssssssssssssssssssccccccssssssssssssssssssssssssssssssccccccsssccsssscccssssscccscccsssscccsssssscccsssscccssccccc"
         transform="translate(-13.669565,-20.090429)" />
      <g
         aria-label="THEO"
         transform="rotate(-7.0509246,-169.88343,100.89339)"
         id="text5879"
         style="font-size:10.6667px;line-height:1.25;font-family:'TeX Gyre Pagella';-inkscape-font-specification:'TeX Gyre Pagella';letter-spacing:0px;word-spacing:0px;display:inline">
        <path
           d="m 126.38219,137.21158 c 0.0533,0.60801 0.0747,1.02401 0.0747,1.71734 h 0.33067 l 0.0427,-0.84267 c 0.0107,-0.256 0.128,-0.352 0.42666,-0.352 h 1.65334 c 0.032,0.36267 0.0427,0.608 0.0427,1.06667 v 4.51202 c 0,0.84267 -0.0533,0.928 -0.544,0.96 l -0.512,0.032 v 0.32 c 0.52266,-0.0213 1.03467,-0.032 1.55733,-0.032 0.52267,0 1.04534,0.0107 1.56801,0.032 v -0.32 l -0.512,-0.032 c -0.49067,-0.032 -0.544,-0.11733 -0.544,-0.96 v -4.51202 c 0,-0.48 0.0107,-0.71467 0.0427,-1.06667 h 1.65334 c 0.29867,0 0.416,0.096 0.42667,0.352 l 0.0427,0.84267 h 0.33066 c 0,-0.69333 0.0213,-1.10933 0.0747,-1.71734 l -2.30401,0.032 h -1.68534 z"
           id="path857" />
        <path
           d="m 132.96354,144.62494 c 0.52267,-0.0213 1.03467,-0.032 1.55734,-0.032 0.52266,0 1.04533,0.0107 1.568,0.032 v -0.32 l -0.512,-0.032 c -0.49067,-0.032 -0.544,-0.11733 -0.544,-0.96 v -2.37868 c 0.288,-0.0213 0.45866,-0.0213 0.88533,-0.0213 h 2.49601 c 0.42667,0 0.59734,0 0.88534,0.0213 v 2.37868 c 0,0.84267 -0.0533,0.928 -0.544,0.96 l -0.51201,0.032 v 0.32 c 0.52267,-0.0213 1.03467,-0.032 1.55734,-0.032 0.52267,0 1.04534,0.0107 1.56801,0.032 v -0.32 l -0.512,-0.032 c -0.49067,-0.032 -0.54401,-0.11733 -0.54401,-0.96 v -4.78935 c 0,-0.84267 0.0533,-0.928 0.54401,-0.96 l 0.512,-0.032 v -0.32001 c -0.52267,0.0213 -1.04534,0.032 -1.56801,0.032 -0.52267,0 -1.03467,-0.0107 -1.55734,-0.032 v 0.32001 l 0.51201,0.032 c 0.49066,0.032 0.544,0.11733 0.544,0.96 v 1.89867 c -0.224,0.0107 -0.448,0.0213 -0.88534,0.0213 h -2.49601 c -0.43733,0 -0.672,-0.0107 -0.88533,-0.0213 v -1.89867 c 0,-0.84267 0.0533,-0.928 0.544,-0.96 l 0.512,-0.032 v -0.32001 c -0.52267,0.0213 -1.04534,0.032 -1.568,0.032 -0.52267,0 -1.03467,-0.0107 -1.55734,-0.032 v 0.32001 l 0.512,0.032 c 0.49067,0.032 0.544,0.11733 0.544,0.96 v 4.78935 c 0,0.84267 -0.0533,0.928 -0.544,0.96 l -0.512,0.032 z"
           id="path859" />
        <path
           d="m 141.83822,137.53159 0.512,0.032 c 0.49067,0.032 0.544,0.11733 0.544,0.96 v 4.78935 c 0,0.84267 -0.0427,0.91733 -0.544,0.96 l -0.384,0.032 v 0.32 c 0.43733,-0.0213 0.87467,-0.032 1.312,-0.032 0.82134,0 1.65334,0.0107 2.47468,0.032 l 1.78134,-0.032 c 0,-0.61867 0.064,-1.19467 0.17066,-1.74934 h -0.37333 l -0.0533,0.36267 c -0.064,0.45867 -0.20267,0.78934 -0.352,0.84267 -0.22401,0.0747 -1.00267,0.128 -1.96268,0.128 -0.55467,0 -0.74667,-0.0213 -1.056,-0.0853 v -2.98668 l 1.70667,-0.032 c 0.46934,0 0.672,0.0427 0.74667,0.39467 0.0427,0.23467 0.0533,0.62933 0.0533,0.62933 h 0.32 c -0.0213,-0.39466 -0.032,-0.78933 -0.032,-1.184 0,-0.416 0.0107,-0.82134 0.032,-1.23734 h -0.32 c 0,0 0,0.352 -0.0533,0.55467 -0.0853,0.36267 -0.288,0.40534 -0.74667,0.40534 -0.53333,0 -1.23734,-0.0107 -1.70667,-0.0427 v -2.84801 c 0.33067,-0.0747 0.512,-0.0853 1.248,-0.0853 0.60801,0 1.20534,0.0533 1.54667,0.14933 0.25601,0.0747 0.28801,0.11733 0.28801,0.36267 v 0.69333 h 0.37333 c 0,-0.64 0.0533,-1.152 0.17067,-1.62134 l -1.32267,-0.032 c -0.82134,0.0213 -1.65334,0.032 -2.47468,0.032 -0.62933,0 -1.26934,-0.0107 -1.89867,-0.032 z"
           id="path861" />
        <path
           d="m 148.35555,140.9556 c 0,2.24 1.55734,3.85068 3.71201,3.85068 2.38935,0 4.20268,-1.78134 4.20268,-4.12802 0,-2.24 -1.49333,-3.64801 -3.86134,-3.64801 -2.43201,0 -4.05335,1.57867 -4.05335,3.92535 z m 1.14134,-0.39467 c 0,-1.97334 0.98134,-3.08268 2.73068,-3.08268 1.824,0 2.90134,1.30134 2.90134,3.52001 0,2.11201 -0.98134,3.36001 -2.63468,3.36001 -1.792,0 -2.99734,-1.51467 -2.99734,-3.79734 z"
           id="path863" />
      </g>
      <g
         aria-label="DB"
         transform="rotate(13.704939,76.755756,-66.920371)"
         id="text5879-3"
         style="font-size:10.6667px;line-height:1.25;font-family:'TeX Gyre Pagella';-inkscape-font-specification:'TeX Gyre Pagella';letter-spacing:0px;word-spacing:0px;display:inline">
        <path
           d="m 123.09944,141.86458 0.42667,0.032 c 0.49067,0.032 0.544,0.128 0.544,0.96 v 5.05602 c 0,0.30933 -0.096,0.544 -0.26666,0.62933 l -0.33067,0.17067 v 0.24533 c 0.49067,-0.0213 0.992,-0.032 1.48267,-0.032 0.512,0 1.03467,0.032 1.54667,0.032 1.36534,0 2.38934,-0.352 3.13601,-1.088 0.768,-0.75734 1.23734,-1.90934 1.23734,-3.05068 0,-1.984 -1.47201,-3.27467 -3.72268,-3.27467 -0.61867,0 -1.23734,0.032 -1.85601,0.032 -0.736,0 -1.46133,-0.0107 -2.19734,-0.032 z m 1.98401,6.53869 v -6.34669 c 0.27733,-0.0533 0.65067,-0.0853 1.184,-0.0853 1.18401,0 2.14401,0.21333 2.70935,0.77866 0.512,0.51201 0.75733,1.28001 0.75733,2.34668 0,1.19467 -0.36267,2.11201 -1.06667,2.68801 -0.64,0.52267 -1.28,0.704 -2.48534,0.704 -0.49067,0 -0.82134,-0.0213 -1.09867,-0.0853 z"
           id="path866" />
        <path
           d="m 131.39812,141.86458 0.384,0.032 c 0.50133,0.0427 0.544,0.11733 0.544,0.96 v 5.05602 c 0,0.39467 -0.0853,0.64 -0.23467,0.69333 l -0.27733,0.10667 v 0.24533 c 0.384,-0.0213 0.77867,-0.032 1.16267,-0.032 0.43733,0 0.88534,0.032 1.32267,0.032 0.78934,0 1.48267,-0.192 1.96267,-0.544 0.62934,-0.448 1.00267,-1.17333 1.00267,-1.92 0,-0.54401 -0.21333,-0.98134 -0.61867,-1.26934 -0.40533,-0.29867 -0.768,-0.39467 -1.58933,-0.45867 0.52266,-0.10667 0.768,-0.20267 1.06667,-0.40533 0.512,-0.35201 0.77867,-0.81067 0.77867,-1.36534 0,-0.93867 -0.61867,-1.45067 -1.90934,-1.45067 -0.64001,0 -1.26934,0.032 -1.90934,0.032 -0.56534,0 -1.12001,-0.0107 -1.68534,-0.032 z m 1.94134,6.56002 v -3.36001 c 0.416,-0.0213 0.512,-0.0213 0.71467,-0.0213 1.44,0 2.112,0.52267 2.112,1.66401 0,1.13067 -0.736,1.80267 -2.00534,1.80267 -0.30933,0 -0.55467,-0.0213 -0.82133,-0.0853 z m 0,-3.77601 v -2.59201 c 0.27733,-0.064 0.52267,-0.0853 0.864,-0.0853 1.14134,0 1.64267,0.384 1.64267,1.26933 0,0.92801 -0.64,1.42934 -1.856,1.42934 -0.18134,0 -0.32,0 -0.65067,-0.0213 z"
           id="path868" />
      </g>
      <g
         aria-label="AUD"
         transform="rotate(23.105254,42.307936,-43.482011)"
         id="text5879-3-7-3"
         style="font-size:10.6667px;line-height:1.25;font-family:'TeX Gyre Pagella';-inkscape-font-specification:'TeX Gyre Pagella';letter-spacing:0px;word-spacing:0px;display:inline">
        <path
           d="m 182.43553,98.894869 c 0.384,-0.02133 0.77867,-0.032 1.16267,-0.032 0.42667,0 0.864,0.01067 1.29067,0.032 v -0.320001 l -0.39467,-0.032 c -0.37333,-0.032 -0.512,-0.106667 -0.512,-0.277334 0,-0.138667 0.14933,-0.597335 0.37333,-1.13067 l 0.29867,-0.714669 h 3.07201 l 0.49067,1.22667 c 0.18133,0.448002 0.224,0.586669 0.224,0.682669 0,0.117334 -0.17067,0.192001 -0.43733,0.213334 l -0.50134,0.032 v 0.320001 c 0.49067,-0.02133 0.992,-0.032 1.48267,-0.032 0.448,0 0.90667,0.01067 1.35467,0.032 v -0.320001 l -0.36266,-0.032 c -0.27734,-0.02133 -0.39467,-0.224 -0.76801,-1.088003 l -2.58134,-6.058686 h -0.34133 c 0,0 -0.11734,0.362668 -0.52267,1.269337 L 183.4062,98.0202 c -0.13867,0.309334 -0.34134,0.501335 -0.576,0.522668 l -0.39467,0.032 z m 2.40001,-2.901342 1.35467,-3.178677 1.344,3.178677 z"
           id="path871" />
        <path
           d="m 189.90221,91.801514 0.512,0.032 c 0.49067,0.032 0.544,0.117333 0.544,0.960003 v 3.786678 c 0,0.832003 0.192,1.418672 0.59734,1.834673 0.42667,0.437335 1.184,0.661335 2.25067,0.661335 1.09867,0 1.83467,-0.224 2.31468,-0.714669 0.50133,-0.501335 0.736,-1.301337 0.736,-2.485341 v -3.082676 c 0,-0.832003 0.0533,-0.928003 0.544,-0.960003 l 0.46933,-0.032 v -0.320001 c -0.42666,0.02133 -0.85333,0.032 -1.28,0.032 -0.416,0 -0.82134,-0.01067 -1.23734,-0.032 v 0.320001 l 0.46934,0.032 c 0.49067,0.032 0.544,0.128 0.544,0.960003 v 3.413344 c 0,1.504005 -0.72534,2.208007 -2.27201,2.208007 -1.48267,0 -2.12267,-0.586669 -2.12267,-1.952006 v -3.669345 c 0,-0.84267 0.0533,-0.928003 0.544,-0.960003 l 0.512,-0.032 v -0.320001 c -0.52267,0.02133 -1.04533,0.032 -1.568,0.032 -0.52267,0 -1.03467,-0.01067 -1.55734,-0.032 z"
           id="path873" />
        <path
           d="m 198.30757,91.801514 0.42667,0.032 c 0.49066,0.032 0.544,0.128 0.544,0.960003 v 5.056016 c 0,0.309334 -0.096,0.544001 -0.26667,0.629335 l -0.33067,0.170667 v 0.245334 c 0.49067,-0.02133 0.99201,-0.032 1.48267,-0.032 0.51201,0 1.03467,0.032 1.54668,0.032 1.36533,0 2.38934,-0.352001 3.13601,-1.088003 0.768,-0.757336 1.23733,-1.909339 1.23733,-3.050676 0,-1.984007 -1.472,-3.274677 -3.72268,-3.274677 -0.61866,0 -1.23733,0.032 -1.856,0.032 -0.736,0 -1.46134,-0.01067 -2.19734,-0.032 z m 1.984,6.538687 v -6.346687 c 0.27734,-0.05333 0.65067,-0.08533 1.18401,-0.08533 1.184,0 2.144,0.213334 2.70934,0.778669 0.512,0.512001 0.75734,1.280004 0.75734,2.346674 0,1.19467 -0.36267,2.112007 -1.06667,2.688008 -0.64001,0.522669 -1.28001,0.704003 -2.48535,0.704003 -0.49066,0 -0.82133,-0.02133 -1.09867,-0.08533 z"
           id="path875" />
      </g>
      <g
         aria-label="SOSY"
         transform="rotate(-54.109307,-26.503223,3.3372285)"
         id="text5879-3-7"
         style="font-size:10.6667px;line-height:1.25;font-family:'TeX Gyre Pagella';-inkscape-font-specification:'TeX Gyre Pagella';letter-spacing:0px;word-spacing:0px;display:inline">
        <path
           d="m -0.74444658,237.19776 c 0,0.52267 0.1386671,0.90667 0.44800141,1.19467 0.36266781,0.33067 0.85333603,0.50134 1.88800597,0.64 0.8213359,0.11734 1.1946704,0.24534 1.4720046,0.48 0.2773343,0.23467 0.4053347,0.53334 0.4053347,0.93867 0,0.96001 -0.8000026,1.65334 -1.9093394,1.65334 -0.85333603,0 -1.68533866,-0.416 -1.73867216,-0.85333 l -0.0853336,-0.71467 h -0.34133441 c 0.0106667,0.192 0.0106667,0.36267 0.0106667,0.42667 0,0.49066 -0.0213334,0.72533 -0.0853336,1.20533 0.60800192,0.26667 1.22667054,0.40534 1.84533918,0.40534 1.8560058,0 3.2000101,-1.12001 3.2000101,-2.66668 0,-0.50133 -0.1386671,-0.85333 -0.4373347,-1.13067 -0.3733345,-0.352 -0.821336,-0.49067 -2.0160064,-0.65067 -1.30133744,-0.17066 -1.76000555,-0.52267 -1.76000555,-1.344 0,-0.896 0.67200212,-1.53601 1.61067175,-1.53601 0.4160013,0 0.8106692,0.0853 1.0986701,0.24534 0.3520012,0.18133 0.4693349,0.34133 0.501335,0.65067 l 0.064,0.608 h 0.3413344 c 0,-0.56534 0.042667,-0.928 0.1493338,-1.50401 -0.8533361,-0.34133 -1.3333376,-0.448 -1.9200061,-0.448 -1.58933834,0 -2.74134198,1.00267 -2.74134198,2.40001 z"
           id="path878" />
        <path
           d="m 4.8342337,238.7231 c 0,2.24001 1.5573383,3.85068 3.7120118,3.85068 2.3893405,0 4.2026795,-1.78134 4.2026795,-4.12802 0,-2.24 -1.493338,-3.64801 -3.8613451,-3.64801 -2.4320077,0 -4.0533462,1.57867 -4.0533462,3.92535 z m 1.141337,-0.39467 c 0,-1.97334 0.9813364,-3.08268 2.7306753,-3.08268 1.824006,0 2.901342,1.30134 2.901342,3.52002 0,2.112 -0.981336,3.36001 -2.6346745,3.36001 -1.7920057,0 -2.9973428,-1.51468 -2.9973428,-3.79735 z"
           id="path880" />
        <path
           d="m 13.239586,237.19776 c 0,0.52267 0.138667,0.90667 0.448001,1.19467 0.362668,0.33067 0.853336,0.50134 1.888006,0.64 0.821336,0.11734 1.194671,0.24534 1.472005,0.48 0.277334,0.23467 0.405335,0.53334 0.405335,0.93867 0,0.96001 -0.800003,1.65334 -1.90934,1.65334 -0.853336,0 -1.685338,-0.416 -1.738672,-0.85333 l -0.08533,-0.71467 h -0.341335 c 0.01067,0.192 0.01067,0.36267 0.01067,0.42667 0,0.49066 -0.02133,0.72533 -0.08533,1.20533 0.608002,0.26667 1.226671,0.40534 1.845339,0.40534 1.856006,0 3.200011,-1.12001 3.200011,-2.66668 0,-0.50133 -0.138668,-0.85333 -0.437335,-1.13067 -0.373335,-0.352 -0.821336,-0.49067 -2.016007,-0.65067 -1.301337,-0.17066 -1.760005,-0.52267 -1.760005,-1.344 0,-0.896 0.672002,-1.53601 1.610672,-1.53601 0.416001,0 0.810669,0.0853 1.09867,0.24534 0.352001,0.18133 0.469335,0.34133 0.501335,0.65067 l 0.064,0.608 H 17.7516 c 0,-0.56534 0.04267,-0.928 0.149334,-1.50401 -0.853336,-0.34133 -1.333337,-0.448 -1.920006,-0.448 -1.589338,0 -2.741342,1.00267 -2.741342,2.40001 z"
           id="path882" />
        <path
           d="m 18.519585,235.41642 0.309334,0.032 c 0.362668,0.0427 0.917337,0.608 1.365338,1.38667 l 1.322671,2.30401 c 0.064,0.10667 0.096,0.256 0.096,0.42667 v 1.51467 c 0,0.84267 -0.05333,0.928 -0.544001,0.96 l -0.512002,0.032 v 0.32 c 0.522668,-0.0213 1.03467,-0.032 1.557338,-0.032 0.522668,0 1.045337,0.0107 1.568005,0.032 v -0.32 l -0.512002,-0.032 c -0.490668,-0.032 -0.544001,-0.11733 -0.544001,-0.96 v -1.37601 c 0,-0.58666 0.149334,-0.94933 0.768002,-1.888 0.789336,-1.184 1.141337,-1.66401 2.00534,-2.69868 v -0.16 h -0.853336 c -0.405335,0.78934 -0.736002,1.36534 -1.152004,2.02668 l -1.09867,1.73867 -1.525338,-2.78401 c -0.341335,-0.61867 -0.778669,-1.09867 -0.97067,-1.09867 l -1.280004,0.26667 z"
           id="path884" />
      </g>
      <g
         id="g76534"
         transform="rotate(-6.1408536,-569.55462,203.0022)"
         style="display:inline">
        <g
           aria-label="D"
           id="text47144"
           style="font-size:9.31834px;line-height:1.25;font-family:'TeX Gyre Pagella';-inkscape-font-specification:'TeX Gyre Pagella';letter-spacing:0px;word-spacing:0px;stroke-width:0.873591">
          <path
             d="m 215.34372,97.863142 0.37273,0.02796 c 0.42865,0.02795 0.47524,0.11182 0.47524,0.838651 v 4.416892 c 0,0.27023 -0.0839,0.47524 -0.23296,0.54978 l -0.28887,0.1491 v 0.21432 c 0.42865,-0.0186 0.86661,-0.028 1.29525,-0.028 0.44728,0 0.90388,0.028 1.35116,0.028 1.19275,0 2.08731,-0.30751 2.73959,-0.95047 0.67092,-0.6616 1.08093,-1.66799 1.08093,-2.66505 0,-1.733209 -1.28593,-2.860728 -3.2521,-2.860728 -0.54046,0 -1.08093,0.02796 -1.62139,0.02796 -0.64297,0 -1.27661,-0.0093 -1.91958,-0.02796 z m 1.73321,5.712138 v -5.544408 c 0.24228,-0.04659 0.56842,-0.07455 1.03434,-0.07455 1.03433,0 1.87298,0.186367 2.36686,0.680239 0.44728,0.447281 0.6616,1.118201 0.6616,2.050036 0,1.04365 -0.31682,1.84503 -0.93184,2.34822 -0.5591,0.4566 -1.1182,0.61501 -2.17117,0.61501 -0.42864,0 -0.71751,-0.0186 -0.95979,-0.0745 z"
             id="path887" />
        </g>
        <g
           aria-label="K"
           id="text52392"
           style="font-size:2.22779px;line-height:1.25;font-family:'TeX Gyre Pagella';-inkscape-font-specification:'TeX Gyre Pagella';letter-spacing:0px;word-spacing:0px;stroke-width:0.208855">
          <path
             d="m 248.31412,101.59587 c 0.10916,-0.004 0.21609,-0.007 0.32525,-0.007 0.10917,0 0.21833,0.002 0.32749,0.007 v -0.0668 l -0.10693,-0.007 c -0.10248,-0.007 -0.11362,-0.0245 -0.11362,-0.2005 v -0.45669 l 0.0223,-0.0156 0.77527,0.74631 c 0.0601,-0.004 0.11807,-0.007 0.17822,-0.007 0.049,0 0.0958,0.002 0.14481,0.007 v -0.0668 l -0.0468,-0.004 c -0.0334,-0.002 -0.0691,-0.0267 -0.13812,-0.0913 l -0.73517,-0.69507 0.59259,-0.53467 c 0.0601,-0.0535 0.11585,-0.0824 0.17377,-0.0847 l 0.0936,-0.004 v -0.0668 c -0.0601,0.004 -0.11808,0.007 -0.17823,0.007 -0.0668,0 -0.13144,-0.002 -0.19827,-0.007 v 0.0601 c 0,0.0134 -0.029,0.0512 -0.0646,0.0869 l -0.61932,0.60373 v -0.47674 c 0,-0.176 0.0111,-0.19382 0.11362,-0.20051 l 0.10693,-0.007 v -0.0668 c -0.10916,0.004 -0.21832,0.007 -0.32749,0.007 -0.10916,0 -0.21609,-0.002 -0.32525,-0.007 v 0.0668 l 0.10693,0.007 c 0.10248,0.007 0.11362,0.0245 0.11362,0.20051 v 1.00027 c 0,0.176 -0.0111,0.19382 -0.11362,0.2005 l -0.10693,0.007 z"
             id="path890" />
        </g>
        <g
           aria-label="I"
           id="text55572"
           style="font-size:2.82437px;line-height:1.25;font-family:'TeX Gyre Pagella';-inkscape-font-specification:'TeX Gyre Pagella';letter-spacing:0px;word-spacing:0px;stroke-width:0.264784">
          <path
             d="m 245.71454,101.80318 c 0.1384,-0.006 0.27396,-0.008 0.41236,-0.008 0.13839,0 0.27679,0.003 0.41518,0.008 v -0.0847 l -0.13557,-0.008 c -0.12992,-0.008 -0.14404,-0.0311 -0.14404,-0.2542 v -1.26814 c 0,-0.223123 0.0141,-0.245718 0.14404,-0.254192 l 0.13557,-0.0085 v -0.08473 c -0.13839,0.0056 -0.27679,0.0085 -0.41518,0.0085 -0.1384,0 -0.27396,-0.0028 -0.41236,-0.0085 v 0.08473 l 0.13557,0.0085 c 0.12992,0.0085 0.14404,0.03107 0.14404,0.254192 v 1.26814 c 0,0.22313 -0.0141,0.24572 -0.14404,0.2542 l -0.13557,0.008 z"
             id="path893" />
        </g>
        <g
           aria-label="T"
           id="text57628"
           style="font-size:3.29795px;line-height:1.25;font-family:'TeX Gyre Pagella';-inkscape-font-specification:'TeX Gyre Pagella';letter-spacing:0px;word-spacing:0px;stroke-width:0.309182">
          <path
             d="m 242.02955,99.675681 c 0.0165,0.187984 0.0231,0.316604 0.0231,0.530969 h 0.10224 l 0.0132,-0.260537 c 0.003,-0.07915 0.0396,-0.108832 0.13192,-0.108832 h 0.51118 c 0.01,0.11213 0.0132,0.187979 0.0132,0.329799 v 1.39503 c 0,0.26054 -0.0165,0.28692 -0.16819,0.29681 l -0.1583,0.01 v 0.0989 c 0.1616,-0.007 0.3199,-0.01 0.4815,-0.01 0.1616,0 0.3232,0.003 0.4848,0.01 v -0.0989 l -0.15831,-0.01 c -0.1517,-0.01 -0.16819,-0.0363 -0.16819,-0.29681 v -1.39503 c 0,-0.14841 0.003,-0.220967 0.0132,-0.329799 h 0.51118 c 0.0924,0 0.12862,0.02968 0.13192,0.108832 l 0.0132,0.260537 h 0.10224 c 0,-0.214365 0.007,-0.342985 0.0231,-0.530969 l -0.71235,0.0099 h -0.52108 z"
             id="path896" />
        </g>
        <g
           aria-label="K"
           id="text63030"
           style="font-size:3.64887px;line-height:1.25;font-family:'TeX Gyre Pagella';-inkscape-font-specification:'TeX Gyre Pagella';letter-spacing:0px;word-spacing:0px;stroke-width:0.342081">
          <path
             d="m 237.86561,102.0897 c 0.1788,-0.007 0.35394,-0.0109 0.53274,-0.0109 0.17879,0 0.35759,0.004 0.53638,0.0109 v -0.10947 l -0.17514,-0.011 c -0.16785,-0.0109 -0.18609,-0.0401 -0.18609,-0.32839 v -0.74802 l 0.0365,-0.0255 1.26981,1.22237 c 0.0985,-0.007 0.19339,-0.0109 0.29191,-0.0109 0.0803,0 0.1569,0.004 0.23718,0.0109 v -0.10947 l -0.0766,-0.007 c -0.0547,-0.004 -0.11311,-0.0438 -0.22623,-0.1496 l -1.20413,-1.13845 0.9706,-0.875727 c 0.0985,-0.08757 0.18974,-0.135008 0.28461,-0.138657 l 0.15326,-0.0073 v -0.109466 c -0.0985,0.0073 -0.19339,0.01095 -0.29191,0.01095 -0.10947,0 -0.21529,-0.0036 -0.32475,-0.01095 v 0.09852 c 0,0.02189 -0.0474,0.08392 -0.10582,0.142306 l -1.01438,0.988842 v -0.78086 c 0,-0.288257 0.0182,-0.317448 0.18609,-0.328395 l 0.17514,-0.01095 v -0.109466 c -0.17879,0.0073 -0.35759,0.01095 -0.53638,0.01095 -0.1788,0 -0.35394,-0.0036 -0.53274,-0.01095 v 0.109466 l 0.17515,0.01095 c 0.16785,0.01095 0.18609,0.04014 0.18609,0.328395 v 1.63835 c 0,0.28826 -0.0182,0.31745 -0.18609,0.32839 l -0.17515,0.011 z"
             id="path899" />
        </g>
        <g
           aria-label="A"
           id="text66060"
           style="font-size:4.92815px;line-height:1.25;font-family:'TeX Gyre Pagella';-inkscape-font-specification:'TeX Gyre Pagella';letter-spacing:0px;word-spacing:0px;stroke-width:0.462013">
          <path
             d="m 232.58471,102.55396 c 0.17741,-0.01 0.35976,-0.0148 0.53717,-0.0148 0.19712,0 0.39918,0.005 0.5963,0.0148 v -0.14784 l -0.18234,-0.0148 c -0.17248,-0.0148 -0.23655,-0.0493 -0.23655,-0.12813 0,-0.0641 0.069,-0.27598 0.17249,-0.52238 l 0.13799,-0.33019 h 1.4193 l 0.2267,0.56674 c 0.0838,0.20698 0.10349,0.27105 0.10349,0.3154 0,0.0542 -0.0789,0.0887 -0.20206,0.0986 l -0.23162,0.0148 v 0.14784 c 0.2267,-0.01 0.45832,-0.0148 0.68501,-0.0148 0.20699,0 0.4189,0.005 0.62588,0.0148 v -0.14784 l -0.16756,-0.0148 c -0.12813,-0.01 -0.18234,-0.10349 -0.35482,-0.50267 l -1.19262,-2.799188 h -0.1577 c 0,0 -0.0542,0.167557 -0.24148,0.58645 l -1.08912,2.473928 c -0.0641,0.14292 -0.1577,0.23163 -0.26612,0.24148 l -0.18234,0.0148 z m 1.10883,-1.34046 0.62588,-1.468584 0.62095,1.468584 z"
             id="path902" />
        </g>
        <g
           aria-label="D"
           id="text68804"
           style="font-size:6.16799px;line-height:1.25;font-family:'TeX Gyre Pagella';-inkscape-font-specification:'TeX Gyre Pagella';letter-spacing:0px;word-spacing:0px;stroke-width:0.578247">
          <path
             d="m 226.89917,98.863377 0.24672,0.0185 c 0.28373,0.0185 0.31457,0.07402 0.31457,0.555119 v 2.92363 c 0,0.17887 -0.0555,0.31457 -0.1542,0.36391 l -0.19121,0.0987 v 0.14186 c 0.28373,-0.0123 0.57362,-0.0185 0.85735,-0.0185 0.29606,0 0.59829,0.0185 0.89436,0.0185 0.7895,0 1.38163,-0.20354 1.81339,-0.62913 0.44409,-0.43793 0.71548,-1.10407 0.71548,-1.76405 0,-1.147246 -0.85118,-1.893573 -2.15262,-1.893573 -0.35775,0 -0.71549,0.0185 -1.07323,0.0185 -0.4256,0 -0.84502,-0.0062 -1.27061,-0.0185 z m 1.14725,3.780983 v -3.669959 c 0.16036,-0.03084 0.37624,-0.04934 0.68464,-0.04934 0.68465,0 1.23977,0.12336 1.56667,0.450263 0.29607,0.296064 0.43793,0.74016 0.43793,1.35696 0,0.69081 -0.20971,1.22126 -0.6168,1.55433 -0.37008,0.30223 -0.74016,0.40709 -1.43714,0.40709 -0.28373,0 -0.47494,-0.0123 -0.6353,-0.0493 z"
             id="path905" />
        </g>
        <g
           aria-label="I"
           id="text70924"
           style="font-size:7.51639px;line-height:1.25;font-family:'TeX Gyre Pagella';-inkscape-font-specification:'TeX Gyre Pagella';letter-spacing:0px;word-spacing:0px;stroke-width:0.70466">
          <path
             d="m 223.25322,103.43366 c 0.3683,-0.015 0.72909,-0.0226 1.09739,-0.0226 0.36831,0 0.73661,0.008 1.10491,0.0226 v -0.22549 l -0.36078,-0.0225 c -0.34576,-0.0225 -0.38334,-0.0827 -0.38334,-0.67648 v -3.374856 c 0,-0.593795 0.0376,-0.653926 0.38334,-0.676475 l 0.36078,-0.02255 v -0.225492 c -0.3683,0.01503 -0.7366,0.02255 -1.10491,0.02255 -0.3683,0 -0.72909,-0.0075 -1.09739,-0.02255 v 0.225492 l 0.36079,0.02255 c 0.34575,0.02255 0.38333,0.08268 0.38333,0.676475 v 3.374856 c 0,0.5938 -0.0376,0.65393 -0.38333,0.67648 l -0.36079,0.0225 z"
             id="path908" />
        </g>
      </g>
    </g>
  </g>
</svg>
